<?xml version="1.0" encoding="utf-8"?>
<!-- Generator: Adobe Illustrator 25.4.1, SVG Export Plug-In . SVG Version: 6.00 Build 0)  -->
<svg version="1.1" id="Layer_1" xmlns="http://www.w3.org/2000/svg" xmlns:xlink="http://www.w3.org/1999/xlink" x="0px" y="0px"
	 viewBox="0 0 2000 3000" style="enable-background:new 0 0 2000 3000;" xml:space="preserve">
<style type="text/css">
	.st0{fill:#BFC1AE;}
	.st1{fill:#FF7E78;}
	.st2{fill:#F45656;}
	.st3{fill:#A55A46;}
	.st4{fill:#CACCB4;}
	.st5{fill:#E8E4D6;}
	.st6{fill:#5881A0;}
	.st7{fill:#3D667F;}
	.st8{fill:#BDC1A3;}
	.st9{fill:#909377;}
	.st10{fill:#EF3F3F;}
	.st11{fill:#D8A971;}
	.st12{fill:#E5C4A5;}
	.st13{fill:#FF6C6C;}
	.st14{fill:#FF7373;}
	.st15{fill:#655E57;}
	.st16{fill:#939EA0;}
	.st17{fill:#495D60;}
</style>
<g>
	<path class="st0" d="M440.23,2642.76v-35.54c0,0,2.32-10.37,10.44-10.37c8.11,0,82.32,0,82.32,0l-8.12,56.28L440.23,2642.76z"/>
	<path class="st1" d="M642.78,700.65c0,0-229.28,991.09-235.01,1363.45c-2.78,180.63,17.18,368.15,37.24,397.12
		c0,0,119.42-7.49,160.4-4.72c56.33,3.82,169.94-1.91,169.94-1.91S665.69,987.08,642.78,700.65z"/>
	<path class="st2" d="M407.76,2064.1c-2.78,180.63,17.18,368.15,37.24,397.12c0,0,50.48-3.17,97.07-4.62
		c-4.65-62.49-8.11-108.03-14.45-197.62C503.1,1912.35,642.78,700.65,642.78,700.65S413.49,1691.75,407.76,2064.1z"/>
	<path class="st3" d="M642.78,700.65c0,0,88.65,1039.78,105.84,1309.03s35.47,545.11,35.47,545.11l-29.74-23.81
		C754.34,2530.98,640.06,823.76,642.78,700.65z"/>
	<path class="st4" d="M496.56,2651.28l34.37-107.89l250.43-2.02c0,0,122.88-27.58,199.26-33.31c76.38-5.73,81.63,22.92,81.63,22.92
		l15.08,31.4l-7.92,7.69l11.46,49.7l-329.39,52.51L496.56,2651.28z"/>
	<path class="st5" d="M973.94,2500.42c-38.06,2.85-76.29,5.78-116.48,13.37l-45.83,40.1l-19.1,111.85l288.34-45.97l-11.46-49.7
		l7.92-7.69l-15.08-31.4c0,0-0.07-0.35-0.28-0.94l-51.16-22.41C1002.24,2507.12,985.58,2499.55,973.94,2500.42z"/>
	<path class="st3" d="M1059.86,2525.25c-26.43-22.92-66.46-30.88-94.87-32.39c-82.92-4.39-302.31,6.61-302.31,6.61
		s-114.57,7.16-139.62,41.95l-3.05,4.83c-0.14,0.34-3.75,9.07-1.47,12.89l221.89,4.3l69.76-0.95c0,0,20.66-52.16,151.95-53.2
		c87.44-0.69,109.21,63.53,109.21,63.53l17.13-3.57C1088.49,2569.24,1078.49,2541.4,1059.86,2525.25z"/>
	<path class="st6" d="M539.72,2577.63l-9.33,28c-1.15,3.45,1.4,7.02,5.03,7.06l241.89,2.73c2.49,0.03,4.66-1.65,5.27-4.07
		l7.34-29.36c0.84-3.37-1.69-6.65-5.17-6.67l-239.9-1.37C542.52,2573.95,540.46,2575.43,539.72,2577.63z"/>
	<path class="st6" d="M832.77,2609.82c-6.71,0.73-12.13-5.5-10.33-12c5.86-21.15,27.22-60.6,105.2-66.84
		c101.61-8.13,123.16,28.64,126.03,37.23c0.73,2.19,1.37,4.38,1.91,6.43c1.5,5.65-2.47,11.29-8.28,11.92L832.77,2609.82z"/>
	<path class="st7" d="M596.14,2613.38l35.73,0.4l7.27-39.28l-34.47-0.2C602.98,2581.67,598.76,2600.33,596.14,2613.38z"/>
	<polygon class="st7" points="710.95,2574.91 671.28,2574.69 664.48,2614.15 701.37,2614.57 	"/>
	<path class="st7" d="M569.5,2574.1l-24.65-0.14c-2.32-0.01-4.39,1.47-5.12,3.67l-9.33,28c-1.15,3.45,1.4,7.02,5.03,7.06l22.02,0.25
		L569.5,2574.1z"/>
	<path class="st7" d="M784.75,2575.33l-39.05-0.22l-9.96,39.85l41.58,0.47c2.48,0.03,4.66-1.65,5.26-4.07l7.34-29.36
		C790.76,2578.63,788.22,2575.35,784.75,2575.33z"/>
	<path class="st7" d="M920.8,2600.27l47.01-5.1l-3.03-65.18c-11.02-0.37-23.32-0.12-37.16,0.98c-2.73,0.22-5.36,0.49-7.95,0.78
		L920.8,2600.27z"/>
	<path class="st7" d="M876.9,2541.97c-37.43,14.86-50.16,40.29-54.47,55.85c-1.8,6.5,3.63,12.73,10.33,12l38.16-4.14L876.9,2541.97z
		"/>
	<path class="st7" d="M1055.57,2574.64c-0.54-2.05-1.18-4.24-1.91-6.43c-1.98-5.94-12.89-25.31-52.94-34.05l8.69,56.5l37.88-4.11
		C1053.1,2585.92,1057.07,2580.29,1055.57,2574.64z"/>
	<polygon class="st3" points="1683.6,2357.28 1725.7,2546.65 1738.15,2543.88 1695.4,2351.62 	"/>
	<polygon class="st8" points="1741.27,2553.89 1733.92,2553.89 1733.42,2480.37 1741.27,2478.95 	"/>
	<rect x="1699.55" y="2488.01" class="st8" width="5.73" height="71.61"/>
	<rect x="1665.18" y="2493.74" class="st8" width="5.73" height="71.6"/>
	<rect x="1630.81" y="2499.47" class="st8" width="5.73" height="71.61"/>
	<rect x="1596.44" y="2505.2" class="st8" width="5.73" height="71.61"/>
	<path class="st9" d="M362.08,2774.38c0,0,12.27,14.38,33.27,20.11c21.01,5.73,1067.42,0,1067.42,0l26.73-32.46L362.08,2774.38z"/>
	<path class="st2" d="M966.3,188.01c-20.19-48.64-140.21,695.96-151.66,1074.05c-11.46,378.08-22.91,1180.08,11.46,1180.08
		c34.37,0,540.49,40.15,721.8,34.37C1547.89,2476.5,1023.58,325.97,966.3,188.01z"/>
	<path class="st10" d="M826.09,2442.13c0,0,42.28-896.33,236.17-1307.63c193.9-411.3,485.62,1342,485.62,1342
		s-228.62-2.35-305.46-6.01C1138.82,2465.56,826.09,2442.13,826.09,2442.13z"/>
	<path class="st3" d="M959.51,195.21l241.85,2417.7c0.69,6.9,5.93,12.02,11.69,11.44l0,0c5.77-0.58,9.88-6.64,9.19-13.53
		L972.85,192.95c-2.14-9.99-7.53-15.7-12.26-4.89l0,0C959.64,190.24,959.26,192.73,959.51,195.21z"/>
	<path class="st1" d="M1060.88,327.37c0,0-149.82,826.86-121.52,1387.66c28.31,560.8,53.62,640.27,53.62,640.27
		s275.88,26.1,471.25,43.16c195.37,17.06,299.13,36.86,299.13,36.86S1274.41,667.74,1060.88,327.37z"/>
	<path class="st8" d="M1567.79,2509.69c-1.84,0.24-3.75,0.49-5.73,0.75v65.11l5.73-0.72V2509.69z"/>
	<path class="st8" d="M1533.42,2514.19c-1.88,0.25-3.79,0.5-5.73,0.75v64.9l5.73-0.71V2514.19z"/>
	<path class="st8" d="M1499.05,2518.69c-1.9,0.25-3.8,0.5-5.73,0.75v64.69l5.73-0.72V2518.69z"/>
	<path class="st8" d="M1464.68,2523.19c-1.9,0.25-3.8,0.5-5.73,0.75v64.48l5.73-0.71V2523.19z"/>
	<path class="st8" d="M1430.31,2527.7c-1.9,0.25-3.82,0.5-5.73,0.75v64.26l5.73-0.71V2527.7z"/>
	<path class="st8" d="M1395.94,2532.21c-1.91,0.25-3.81,0.5-5.73,0.75v61.81h5.73V2532.21z"/>
	<path class="st8" d="M1361.57,2536.73c-1.91,0.25-3.82,0.5-5.73,0.75v57.29h5.73V2536.73z"/>
	<path class="st8" d="M1327.2,2541.25c-1.91,0.25-3.82,0.5-5.73,0.75v63.58l5.73-0.72V2541.25z"/>
	<path class="st8" d="M1298.55,2545.02c-1.91,0.25-3.82,0.5-5.73,0.75v63.38l5.73-0.71V2545.02z"/>
	<path class="st8" d="M1264.18,2549.55c-1.91,0.25-3.82,0.51-5.73,0.76v63.14l5.73-0.71V2549.55z"/>
	<path class="st8" d="M1229.81,2554.09c-1.91,0.25-3.83,0.51-5.73,0.76v62.88l5.73-0.72V2554.09z"/>
	<path class="st8" d="M1195.44,2558.65c-1.92,0.26-3.84,0.51-5.73,0.76v62.61l5.73-0.71V2558.65z"/>
	<path class="st8" d="M1161.07,2563.22c-1.94,0.26-3.85,0.51-5.73,0.77v62.32l5.73-0.71V2563.22z"/>
	<path class="st8" d="M1126.7,2567.83c-0.95,0.13-1.93,0.26-2.86,0.38c-0.93,0.13-1.91,0.25-2.87,0.38v62.01l5.73-0.71V2567.83z"/>
	<path class="st8" d="M1092.33,2572.17c-1.88,0.22-3.79,0.45-5.73,0.67v62.06l5.73-0.71V2572.17z"/>
	<path class="st8" d="M1057.95,2576.08c-1.89,0.21-3.8,0.42-5.73,0.63v62.48l5.73-0.71V2576.08z"/>
	<path class="st8" d="M1023.58,2579.78c-1.9,0.2-3.81,0.4-5.73,0.6v63.1l5.73-0.71V2579.78z"/>
	<path class="st8" d="M989.21,2581.9c-1.91,0.19-3.81,0.38-5.73,0.58v63.85l5.73-0.72V2581.9z"/>
	<path class="st8" d="M954.84,2584.88c-1.9,0.19-3.82,0.38-5.73,0.57v64.71l5.73-0.72V2584.88z"/>
	<path class="st8" d="M920.47,2588.72c-1.91,0.19-3.81,0.37-5.73,0.56v65.64l5.73-0.72V2588.72z"/>
	<path class="st8" d="M886.58,2590.61c-1.92,0.18-3.82,0.36-5.73,0.54v66.63l5.73-0.72V2590.61z"/>
	<path class="st8" d="M754.34,2601.9c-1.93,0.18-3.84,0.35-5.73,0.52v70.86l5.73-0.72V2601.9z"/>
	<path class="st8" d="M719.97,2605.48c-1.94,0.17-3.86,0.35-5.73,0.51v72.05l5.73-0.71V2605.48z"/>
	<path class="st8" d="M685.6,2608.54c-2.02,0.18-3.91,0.35-5.73,0.51v73.28l5.73-0.72V2608.54z"/>
	<polygon class="st8" points="651.23,2612.69 645.5,2612.69 645.5,2688.34 651.23,2687.63 	"/>
	<polygon class="st8" points="616.86,2614.3 611.13,2614.3 611.13,2694.24 616.86,2693.53 	"/>
	<path class="st8" d="M851.73,2593.39c-1.92,0.18-3.83,0.36-5.73,0.54v67.67l5.73-0.71V2593.39z"/>
	<path class="st8" d="M817.36,2596.6c-1.92,0.18-3.83,0.35-5.73,0.53v68.76l5.73-0.71V2596.6z"/>
	<path class="st8" d="M788.24,2599.24c-1.91,0.18-3.84,0.35-5.73,0.53v69.7l5.73-0.71V2599.24z"/>
	<path class="st11" d="M321.28,2633.41v-30.84c0-12.12,7.16-21.94,15.99-21.94h0.46c8.83,0,15.99,9.82,15.99,21.94v30.99
		c0,14.19-9.67,24.64-19.73,21.34c-0.15-0.05-0.31-0.1-0.46-0.15C326.33,2652.38,321.28,2643.56,321.28,2633.41z"/>
	<path class="st12" d="M362.08,2774.38h1131.39l80.2-191.91c0,0-698.88,91.66-862.14,97.39c-163.26,5.73-452.55-25.78-452.55-25.78
		S261.83,2751.47,362.08,2774.38z"/>
	<path class="st11" d="M253.24,2622.58c0,0,280.7,31.51,389.54,28.64c108.84-2.86,529.89-40.1,621.55-57.29
		c91.66-17.18,476.95-60.74,476.95-60.74s16.19,24.3-1.48,29.23c-16.73,4.67-166.13,20.05-166.13,20.05
		c22.86-0.97-716.84,93.85-925.16,102.16c-105.01,4.19-381.9-30.55-389.54-30.55C251.33,2654.09,224.6,2638.81,253.24,2622.58z"/>
	<path class="st13" d="M1674.9,2123.56c-150.89-523.3-456.96-1545.83-614.02-1796.19c0,0,44.4,715.06,205.14,1105.67
		C1400.73,1760.41,1610.49,2041.2,1674.9,2123.56z"/>
	<path class="st14" d="M1328.13,2386.33c-6.51-72.3-28.95-221.69-104.93-470.59c-89.12-291.95-224.91-401.68-286.27-443.89
		c-1.98,84.18-1.47,166.19,2.42,243.17c28.31,560.8,53.62,640.27,53.62,640.27S1161.33,2371.23,1328.13,2386.33z"/>
	<path class="st5" d="M711.52,2679.86c-163.26,5.73-452.55-25.78-452.55-25.78s2.86,97.38,103.11,120.3
		c13.79-0.87,579.71-17.27,813.51-141.96C988.3,2654.94,789.24,2677.14,711.52,2679.86z"/>
	<path class="st15" d="M347.86,2711.18c0.27-7.84,4.63-14.04,9.74-13.87c5.11,0.17,9.03,6.66,8.77,14.5
		c-0.27,7.83-4.63,14.04-9.74,13.87C351.52,2725.51,347.6,2719.02,347.86,2711.18z"/>
	<path class="st15" d="M382.56,2712.36c0.26-7.83,4.62-14.04,9.74-13.87c5.11,0.18,9.03,6.67,8.76,14.5
		c-0.26,7.83-4.62,14.04-9.73,13.87C386.21,2726.69,382.29,2720.2,382.56,2712.36z"/>
	<path class="st15" d="M462.44,2711.18c0.26-7.84,4.62-14.04,9.74-13.87c5.11,0.17,9.03,6.66,8.76,14.5
		c-0.27,7.83-4.62,14.04-9.73,13.87C466.09,2725.51,462.17,2719.02,462.44,2711.18z"/>
	<path class="st15" d="M497.13,2712.36c0.27-7.83,4.63-14.04,9.74-13.87c5.11,0.18,9.03,6.67,8.77,14.5
		c-0.27,7.83-4.63,14.04-9.73,13.87C500.79,2726.69,496.86,2720.2,497.13,2712.36z"/>
	<path class="st16" d="M875.37,2736.95c-4.33,0-8.47-1.54-11.77-4.42c-3.62-3.15-5.79-7.52-6.11-12.3
		c-0.67-9.87,6.81-18.45,16.68-19.13c9.86-0.65,18.45,6.81,19.13,16.68c0.67,9.87-6.81,18.46-16.68,19.13
		C876.2,2736.94,875.78,2736.95,875.37,2736.95z M875.39,2706.79c-0.27,0-0.55,0.01-0.83,0.03c-6.72,0.46-11.82,6.3-11.36,13.02
		c0.46,6.72,6.38,11.85,13.02,11.35c6.72-0.45,11.81-6.3,11.35-13.02C887.14,2711.73,881.76,2706.79,875.39,2706.79z"/>
	<path class="st6" d="M860.35,2720.03c-0.57-8.31,5.71-15.5,14.02-16.07c8.31-0.57,15.5,5.71,16.07,14.02
		c0.57,8.31-5.71,15.5-14.02,16.07C868.11,2734.62,860.92,2728.34,860.35,2720.03z"/>
	<path class="st16" d="M931.79,2733.1c-4.34,0-8.47-1.55-11.78-4.42c-3.61-3.16-5.78-7.52-6.1-12.3l0,0
		c-0.67-9.87,6.82-18.46,16.68-19.12c4.83-0.29,9.41,1.23,13.02,4.38c3.61,3.16,5.78,7.52,6.1,12.3c0.33,4.78-1.22,9.4-4.38,13.02
		c-3.15,3.61-7.52,5.78-12.3,6.11C932.61,2733.09,932.2,2733.1,931.79,2733.1z M919.62,2715.99c0.22,3.25,1.7,6.23,4.15,8.37
		c2.46,2.14,5.6,3.21,8.86,2.98c3.25-0.22,6.23-1.7,8.38-4.16c2.15-2.46,3.2-5.6,2.98-8.86c-0.45-6.72-6.23-11.88-13.01-11.36
		C924.26,2703.43,919.17,2709.27,919.62,2715.99L919.62,2715.99z"/>
	<path class="st6" d="M916.77,2716.18c-0.57-8.31,5.71-15.5,14.02-16.07c8.31-0.56,15.5,5.71,16.07,14.02
		c0.57,8.31-5.71,15.51-14.02,16.07C924.53,2730.77,917.33,2724.49,916.77,2716.18z"/>
	<path class="st16" d="M1044.62,2725.41c-4.33,0-8.47-1.55-11.78-4.42c-3.61-3.16-5.78-7.53-6.11-12.3
		c-0.33-4.78,1.23-9.4,4.38-13.02c3.16-3.62,7.52-5.78,12.3-6.11c9.85-0.73,18.45,6.81,19.13,16.68
		c0.67,9.87-6.82,18.45-16.68,19.13C1045.45,2725.4,1045.03,2725.41,1044.62,2725.41z M1044.65,2695.25c-0.27,0-0.55,0.01-0.83,0.03
		c-6.72,0.46-11.82,6.3-11.36,13.02c0.46,6.72,6.4,11.84,13.02,11.36c6.72-0.46,11.82-6.3,11.36-13.02
		C1056.39,2700.2,1051.01,2695.25,1044.65,2695.25z"/>
	<path class="st6" d="M1029.6,2708.49c-0.57-8.31,5.71-15.5,14.02-16.07c8.31-0.57,15.51,5.71,16.07,14.02
		c0.57,8.31-5.71,15.5-14.02,16.07C1037.36,2723.08,1030.16,2716.8,1029.6,2708.49z"/>
	<path class="st16" d="M1101.03,2721.57c-4.33,0-8.47-1.55-11.77-4.43c-3.61-3.15-5.78-7.52-6.1-12.3l0,0
		c-0.32-4.78,1.23-9.4,4.38-13.02c3.15-3.61,7.52-5.78,12.3-6.1c4.83-0.3,9.41,1.23,13.02,4.38c3.61,3.16,5.78,7.52,6.1,12.3
		c0.33,4.78-1.22,9.41-4.38,13.02c-3.15,3.61-7.52,5.78-12.3,6.11C1101.86,2721.55,1101.44,2721.57,1101.03,2721.57z
		 M1101.06,2691.41c-0.27,0-0.55,0.01-0.83,0.03c-6.72,0.45-11.82,6.29-11.36,13.01l0,0c0.22,3.25,1.7,6.23,4.16,8.38
		c2.45,2.13,5.61,3.21,8.85,2.97c3.26-0.22,6.23-1.7,8.38-4.15c2.14-2.46,3.2-5.6,2.97-8.86
		C1112.8,2696.35,1107.43,2691.41,1101.06,2691.41z"/>
	<path class="st17" d="M1086.01,2704.65c-0.57-8.31,5.71-15.51,14.02-16.07c8.31-0.57,15.5,5.71,16.07,14.02
		c0.56,8.31-5.71,15.5-14.02,16.07C1093.78,2719.23,1086.58,2712.96,1086.01,2704.65z"/>
	<path class="st16" d="M1207.76,2716.03c-9.35,0-17.25-7.27-17.9-16.72l0,0c-0.67-9.88,6.81-18.46,16.68-19.13
		c9.89-0.7,18.45,6.81,19.13,16.68c0.67,9.87-6.82,18.45-16.68,19.13C1208.57,2716.02,1208.17,2716.03,1207.76,2716.03z
		 M1195.58,2698.92c0.45,6.72,6.24,11.9,13.02,11.35c6.72-0.46,11.82-6.3,11.36-13.02c-0.46-6.72-6.23-11.86-13.02-11.36
		C1200.22,2686.35,1195.12,2692.2,1195.58,2698.92L1195.58,2698.92z"/>
	<path class="st17" d="M1192.72,2699.11c-0.57-8.31,5.71-15.5,14.02-16.07c8.31-0.57,15.5,5.71,16.07,14.02
		c0.57,8.31-5.71,15.5-14.02,16.07C1200.48,2713.7,1193.29,2707.42,1192.72,2699.11z"/>
	<path class="st16" d="M1264.15,2712.18c-4.33,0-8.47-1.55-11.77-4.42c-3.61-3.15-5.78-7.52-6.1-12.3
		c-0.32-4.78,1.23-9.4,4.38-13.02c3.15-3.61,7.52-5.78,12.3-6.1c4.82-0.31,9.41,1.23,13.02,4.38c3.61,3.15,5.78,7.52,6.1,12.3
		c0.32,4.78-1.23,9.4-4.38,13.02c-3.15,3.61-7.52,5.78-12.3,6.1C1264.98,2712.17,1264.57,2712.18,1264.15,2712.18z M1264.2,2682.03
		c-0.28,0-0.57,0.01-0.85,0.03c-3.25,0.22-6.23,1.7-8.37,4.16c-2.15,2.45-3.2,5.6-2.98,8.86l0,0c0.22,3.25,1.7,6.23,4.16,8.37
		c2.46,2.14,5.61,3.22,8.86,2.98c3.26-0.22,6.23-1.7,8.37-4.16c2.15-2.46,3.2-5.6,2.98-8.86c-0.22-3.26-1.69-6.23-4.15-8.37
		C1269.97,2683.08,1267.15,2682.03,1264.2,2682.03z"/>
	<path class="st17" d="M1249.14,2695.27c-0.57-8.31,5.71-15.5,14.02-16.07c8.31-0.57,15.5,5.71,16.07,14.02
		c0.56,8.31-5.71,15.5-14.02,16.07C1256.9,2709.85,1249.7,2703.57,1249.14,2695.27z"/>
	<polygon class="st11" points="611.13,2617.1 611.1,2611.42 1092.07,2569.31 1601.79,2502.36 1739.18,2479.46 1740.12,2485.11 
		1602.64,2508.02 1092.7,2575 	"/>
	<path class="st14" d="M807.79,1547.89c27.86-95.22,106-377.75,125.21-613.16c23.5-287.91,26.51-739.51,26.51-739.51l-2.62,2.33
		c-34.76,93.89-132.01,726.04-142.26,1064.51C812.21,1342.18,809.78,1441.35,807.79,1547.89z"/>
</g>
</svg>
